# xmcd CD database file
#
# Track frame offsets:
#	150
#	26760
#	49442
#	67817
#	89127
#	111005
#	135295
#	153837
#	177715
#	199197
#	219755
#	238520
#	272882
#
# Disc length: 4440 seconds
#
# Revision: 0
# Processed by: cddbd v1.5.1PL0 Copyright (c) Steve Scherf et al.
# Submitted via: CDex 1.51
#
DISCID=b811560d
DTITLE=オムニバス - DraMania（DISC 2 SUMMER）
DYEAR=1900
DGENRE=J-Pop
TTITLE0=Feel Like dance
TTITLE1=survival dAnce〜no no cry more〜
TTITLE2=POISON
TTITLE3=there is...
TTITLE4=Another Orion
TTITLE5=浅い眠り
TTITLE6=Make-up Shadow
TTITLE7=BURN
TTITLE8=TOMORROW
TTITLE9=SPY
TTITLE10=今宵の月のように
TTITLE11=Voyage
TTITLE12=データトラック
EXTD=
EXTT0=
EXTT1=
EXTT2=
EXTT3=
EXTT4=
EXTT5=
EXTT6=
EXTT7=
EXTT8=
EXTT9=
EXTT10=
EXTT11=
EXTT12=
PLAYORDER=
